<?xml version="1.0" encoding="UTF-8" standalone="no"?>
<!DOCTYPE svg PUBLIC "-//W3C//DTD SVG 1.1//EN" "http://www.w3.org/Graphics/SVG/1.1/DTD/svg11.dtd">
<svg width="100%" height="100%" viewBox="0 0 130 30" version="1.1" xmlns="http://www.w3.org/2000/svg" xmlns:xlink="http://www.w3.org/1999/xlink" xml:space="preserve" xmlns:serif="http://www.serif.com/" style="fill-rule:evenodd;clip-rule:evenodd;stroke-linejoin:round;stroke-miterlimit:2;">
    <g transform="matrix(0.0269149,-3.30197e-20,3.30197e-20,-0.0271846,-53.905,104.567)">
        <g id="g10">
            <g id="g12">
                <path id="path16" d="M2935.71,3807.08L2345.69,3807.08L2153.2,3614.59L2901.88,3614.59L2935.71,3807.08ZM2074.35,3192.94L2002.23,2782.5L2754.15,2782.5L2788.06,2975.47L2237.41,2975.47L2277.3,3202.49L2791.28,3202.49L2824.62,3392.19L2273.6,3392.19L2074.35,3192.94" style="fill:rgb(94,201,200);fill-rule:nonzero;"/>
                <path id="path18" d="M4741.54,2782.5L4943.28,2782.5L5123.09,3805.81L4921.35,3805.81L4741.54,2782.5ZM5894.92,3805.81L5517.76,3017.86L5415.42,3805.81L5207.84,3805.81L5361.34,2782.5L5611.31,2782.5L6124.44,3805.81L5894.92,3805.81ZM6799.76,3612.85L6833.38,3805.81L6207.7,3805.81L6027.89,2782.5L6660.88,2782.5L6694.51,2975.47L6263.25,2975.47L6304.18,3204.98L6690.12,3204.98L6725.21,3393.56L6336.35,3393.56L6375.81,3612.85L6799.76,3612.85ZM3450.68,3805.81L3044.28,3805.81L3044.12,3804.91L3212.4,3612.84L3417.05,3612.84C3593.94,3612.84 3693.34,3488.58 3661.18,3300C3627.56,3111.42 3481.37,2975.47 3292.8,2975.47L3099.82,2975.47L3099.84,2975.61L3097.23,2975.61L2864.53,2782.89L2864.47,2782.5L3270.87,2782.5C3564.7,2782.5 3802.99,2991.55 3854.15,3279.54C3905.31,3567.53 3719.65,3805.81 3450.68,3805.81ZM4528.14,3466.66C4513.53,3381.86 4444.82,3314.62 4361.49,3314.62L4153.91,3314.62L4206.53,3617.24L4403.89,3617.24C4491.6,3617.24 4542.76,3551.44 4528.14,3466.66ZM4437.51,3805.81L4038.42,3805.81L3858.6,2782.5L4060.34,2782.5L4123.2,3137.73L4291.32,3137.73L4433.12,2782.5L4637.79,2782.5L4482.82,3164.05C4610.01,3209.36 4703.56,3314.62 4728.42,3452.04C4762.04,3639.16 4623.16,3805.81 4437.51,3805.81" style="fill:white;fill-rule:nonzero;"/>
            </g>
        </g>
    </g>
</svg>
